<svg width="1512" height="300" viewBox="0 0 1512 300" fill="none" xmlns="http://www.w3.org/2000/svg">
<path fill-rule="evenodd" clip-rule="evenodd" d="M346 219.105L398.833 212.768C451.667 206.432 557.333 193.76 663 206.432C768.667 219.105 874.333 257.122 980 244.449C1085.67 231.777 1191.33 168.415 1297 136.733C1402.67 105.052 1508.33 105.052 1561.17 105.052H1614V-9H1561.17C1508.33 -9 1402.67 -9 1297 -9C1191.33 -9 1085.67 -9 980 -9C874.333 -9 768.667 -9 663 -9C557.333 -9 451.667 -9 398.833 -9H346V219.105Z" fill="#73EFD1"/>
<path fill-rule="evenodd" clip-rule="evenodd" d="M0 300H50.4C100.8 300 201.6 300 302.4 254.625C403.2 209.25 504 118.5 604.8 110.938C705.6 103.375 806.4 179 907.2 179C1008 179 1108.8 103.375 1209.6 103.375C1310.4 103.375 1411.2 179 1461.6 216.812L1512 254.625V-63H1461.6C1411.2 -63 1310.4 -63 1209.6 -63C1108.8 -63 1008 -63 907.2 -63C806.4 -63 705.6 -63 604.8 -63C504 -63 403.2 -63 302.4 -63C201.6 -63 100.8 -63 50.4 -63H0V300Z" fill="#0099FF"/>
<path d="M80.0391 104.07C80.0391 103.461 79.9453 102.914 79.7578 102.43C79.5859 101.93 79.2578 101.477 78.7734 101.07C78.2891 100.648 77.6094 100.234 76.7344 99.8281C75.8594 99.4219 74.7266 99 73.3359 98.5625C71.7891 98.0625 70.3203 97.5 68.9297 96.875C67.5547 96.25 66.3359 95.5234 65.2734 94.6953C64.2266 93.8516 63.3984 92.875 62.7891 91.7656C62.1953 90.6562 61.8984 89.3672 61.8984 87.8984C61.8984 86.4766 62.2109 85.1875 62.8359 84.0312C63.4609 82.8594 64.3359 81.8594 65.4609 81.0312C66.5859 80.1875 67.9141 79.5391 69.4453 79.0859C70.9922 78.6328 72.6875 78.4062 74.5312 78.4062C77.0469 78.4062 79.2422 78.8594 81.1172 79.7656C82.9922 80.6719 84.4453 81.9141 85.4766 83.4922C86.5234 85.0703 87.0469 86.875 87.0469 88.9062H80.0625C80.0625 87.9062 79.8516 87.0312 79.4297 86.2812C79.0234 85.5156 78.3984 84.9141 77.5547 84.4766C76.7266 84.0391 75.6797 83.8203 74.4141 83.8203C73.1953 83.8203 72.1797 84.0078 71.3672 84.3828C70.5547 84.7422 69.9453 85.2344 69.5391 85.8594C69.1328 86.4688 68.9297 87.1562 68.9297 87.9219C68.9297 88.5 69.0703 89.0234 69.3516 89.4922C69.6484 89.9609 70.0859 90.3984 70.6641 90.8047C71.2422 91.2109 71.9531 91.5938 72.7969 91.9531C73.6406 92.3125 74.6172 92.6641 75.7266 93.0078C77.5859 93.5703 79.2188 94.2031 80.625 94.9062C82.0469 95.6094 83.2344 96.3984 84.1875 97.2734C85.1406 98.1484 85.8594 99.1406 86.3438 100.25C86.8281 101.359 87.0703 102.617 87.0703 104.023C87.0703 105.508 86.7812 106.836 86.2031 108.008C85.625 109.18 84.7891 110.172 83.6953 110.984C82.6016 111.797 81.2969 112.414 79.7812 112.836C78.2656 113.258 76.5703 113.469 74.6953 113.469C73.0078 113.469 71.3438 113.25 69.7031 112.812C68.0625 112.359 66.5703 111.68 65.2266 110.773C63.8984 109.867 62.8359 108.711 62.0391 107.305C61.2422 105.898 60.8438 104.234 60.8438 102.312H67.8984C67.8984 103.375 68.0625 104.273 68.3906 105.008C68.7188 105.742 69.1797 106.336 69.7734 106.789C70.3828 107.242 71.1016 107.57 71.9297 107.773C72.7734 107.977 73.6953 108.078 74.6953 108.078C75.9141 108.078 76.9141 107.906 77.6953 107.562C78.4922 107.219 79.0781 106.742 79.4531 106.133C79.8438 105.523 80.0391 104.836 80.0391 104.07ZM103.102 113.469C101.133 113.469 99.3672 113.156 97.8047 112.531C96.2422 111.891 94.9141 111.008 93.8203 109.883C92.7422 108.758 91.9141 107.453 91.3359 105.969C90.7578 104.469 90.4688 102.875 90.4688 101.188V100.25C90.4688 98.3281 90.7422 96.5703 91.2891 94.9766C91.8359 93.3828 92.6172 92 93.6328 90.8281C94.6641 89.6562 95.9141 88.7578 97.3828 88.1328C98.8516 87.4922 100.508 87.1719 102.352 87.1719C104.148 87.1719 105.742 87.4688 107.133 88.0625C108.523 88.6562 109.688 89.5 110.625 90.5938C111.578 91.6875 112.297 93 112.781 94.5312C113.266 96.0469 113.508 97.7344 113.508 99.5938V102.406H93.3516V97.9062H106.875V97.3906C106.875 96.4531 106.703 95.6172 106.359 94.8828C106.031 94.1328 105.531 93.5391 104.859 93.1016C104.188 92.6641 103.328 92.4453 102.281 92.4453C101.391 92.4453 100.625 92.6406 99.9844 93.0312C99.3438 93.4219 98.8203 93.9688 98.4141 94.6719C98.0234 95.375 97.7266 96.2031 97.5234 97.1562C97.3359 98.0938 97.2422 99.125 97.2422 100.25V101.188C97.2422 102.203 97.3828 103.141 97.6641 104C97.9609 104.859 98.375 105.602 98.9062 106.227C99.4531 106.852 100.109 107.336 100.875 107.68C101.656 108.023 102.539 108.195 103.523 108.195C104.742 108.195 105.875 107.961 106.922 107.492C107.984 107.008 108.898 106.281 109.664 105.312L112.945 108.875C112.414 109.641 111.688 110.375 110.766 111.078C109.859 111.781 108.766 112.359 107.484 112.812C106.203 113.25 104.742 113.469 103.102 113.469ZM131.039 107.281V95.9844C131.039 95.1719 130.906 94.4766 130.641 93.8984C130.375 93.3047 129.961 92.8438 129.398 92.5156C128.852 92.1875 128.141 92.0234 127.266 92.0234C126.516 92.0234 125.867 92.1562 125.32 92.4219C124.773 92.6719 124.352 93.0391 124.055 93.5234C123.758 93.9922 123.609 94.5469 123.609 95.1875H116.859C116.859 94.1094 117.109 93.0859 117.609 92.1172C118.109 91.1484 118.836 90.2969 119.789 89.5625C120.742 88.8125 121.875 88.2266 123.188 87.8047C124.516 87.3828 126 87.1719 127.641 87.1719C129.609 87.1719 131.359 87.5 132.891 88.1562C134.422 88.8125 135.625 89.7969 136.5 91.1094C137.391 92.4219 137.836 94.0625 137.836 96.0312V106.883C137.836 108.273 137.922 109.414 138.094 110.305C138.266 111.18 138.516 111.945 138.844 112.602V113H132.023C131.695 112.312 131.445 111.453 131.273 110.422C131.117 109.375 131.039 108.328 131.039 107.281ZM131.93 97.5547L131.977 101.375H128.203C127.312 101.375 126.539 101.477 125.883 101.68C125.227 101.883 124.688 102.172 124.266 102.547C123.844 102.906 123.531 103.328 123.328 103.812C123.141 104.297 123.047 104.828 123.047 105.406C123.047 105.984 123.18 106.508 123.445 106.977C123.711 107.43 124.094 107.789 124.594 108.055C125.094 108.305 125.68 108.43 126.352 108.43C127.367 108.43 128.25 108.227 129 107.82C129.75 107.414 130.328 106.914 130.734 106.32C131.156 105.727 131.375 105.164 131.391 104.633L133.172 107.492C132.922 108.133 132.578 108.797 132.141 109.484C131.719 110.172 131.18 110.82 130.523 111.43C129.867 112.023 129.078 112.516 128.156 112.906C127.234 113.281 126.141 113.469 124.875 113.469C123.266 113.469 121.805 113.148 120.492 112.508C119.195 111.852 118.164 110.953 117.398 109.812C116.648 108.656 116.273 107.344 116.273 105.875C116.273 104.547 116.523 103.367 117.023 102.336C117.523 101.305 118.258 100.438 119.227 99.7344C120.211 99.0156 121.438 98.4766 122.906 98.1172C124.375 97.7422 126.078 97.5547 128.016 97.5547H131.93ZM149.789 93.1719V113H143.039V87.6406H149.391L149.789 93.1719ZM157.43 87.4766L157.312 93.7344C156.984 93.6875 156.586 93.6484 156.117 93.6172C155.664 93.5703 155.25 93.5469 154.875 93.5469C153.922 93.5469 153.094 93.6719 152.391 93.9219C151.703 94.1562 151.125 94.5078 150.656 94.9766C150.203 95.4453 149.859 96.0156 149.625 96.6875C149.406 97.3594 149.281 98.125 149.25 98.9844L147.891 98.5625C147.891 96.9219 148.055 95.4141 148.383 94.0391C148.711 92.6484 149.188 91.4375 149.812 90.4062C150.453 89.375 151.234 88.5781 152.156 88.0156C153.078 87.4531 154.133 87.1719 155.32 87.1719C155.695 87.1719 156.078 87.2031 156.469 87.2656C156.859 87.3125 157.18 87.3828 157.43 87.4766ZM170.625 108.195C171.453 108.195 172.188 108.039 172.828 107.727C173.469 107.398 173.969 106.945 174.328 106.367C174.703 105.773 174.898 105.078 174.914 104.281H181.266C181.25 106.062 180.773 107.648 179.836 109.039C178.898 110.414 177.641 111.5 176.062 112.297C174.484 113.078 172.719 113.469 170.766 113.469C168.797 113.469 167.078 113.141 165.609 112.484C164.156 111.828 162.945 110.922 161.977 109.766C161.008 108.594 160.281 107.234 159.797 105.688C159.312 104.125 159.07 102.453 159.07 100.672V99.9922C159.07 98.1953 159.312 96.5234 159.797 94.9766C160.281 93.4141 161.008 92.0547 161.977 90.8984C162.945 89.7266 164.156 88.8125 165.609 88.1562C167.062 87.5 168.766 87.1719 170.719 87.1719C172.797 87.1719 174.617 87.5703 176.18 88.3672C177.758 89.1641 178.992 90.3047 179.883 91.7891C180.789 93.2578 181.25 95 181.266 97.0156H174.914C174.898 96.1719 174.719 95.4062 174.375 94.7188C174.047 94.0312 173.562 93.4844 172.922 93.0781C172.297 92.6562 171.523 92.4453 170.602 92.4453C169.617 92.4453 168.812 92.6562 168.188 93.0781C167.562 93.4844 167.078 94.0469 166.734 94.7656C166.391 95.4688 166.148 96.2734 166.008 97.1797C165.883 98.0703 165.82 99.0078 165.82 99.9922V100.672C165.82 101.656 165.883 102.602 166.008 103.508C166.133 104.414 166.367 105.219 166.711 105.922C167.07 106.625 167.562 107.18 168.188 107.586C168.812 107.992 169.625 108.195 170.625 108.195ZM191.766 77V113H185.016V77H191.766ZM190.805 99.4297H188.953C188.969 97.6641 189.203 96.0391 189.656 94.5547C190.109 93.0547 190.758 91.7578 191.602 90.6641C192.445 89.5547 193.453 88.6953 194.625 88.0859C195.812 87.4766 197.125 87.1719 198.562 87.1719C199.812 87.1719 200.945 87.3516 201.961 87.7109C202.992 88.0547 203.875 88.6172 204.609 89.3984C205.359 90.1641 205.938 91.1719 206.344 92.4219C206.75 93.6719 206.953 95.1875 206.953 96.9688V113H200.156V96.9219C200.156 95.7969 199.992 94.9141 199.664 94.2734C199.352 93.6172 198.891 93.1562 198.281 92.8906C197.688 92.6094 196.953 92.4688 196.078 92.4688C195.109 92.4688 194.281 92.6484 193.594 93.0078C192.922 93.3672 192.383 93.8672 191.977 94.5078C191.57 95.1328 191.273 95.8672 191.086 96.7109C190.898 97.5547 190.805 98.4609 190.805 99.4297ZM242.227 104.07C242.227 103.461 242.133 102.914 241.945 102.43C241.773 101.93 241.445 101.477 240.961 101.07C240.477 100.648 239.797 100.234 238.922 99.8281C238.047 99.4219 236.914 99 235.523 98.5625C233.977 98.0625 232.508 97.5 231.117 96.875C229.742 96.25 228.523 95.5234 227.461 94.6953C226.414 93.8516 225.586 92.875 224.977 91.7656C224.383 90.6562 224.086 89.3672 224.086 87.8984C224.086 86.4766 224.398 85.1875 225.023 84.0312C225.648 82.8594 226.523 81.8594 227.648 81.0312C228.773 80.1875 230.102 79.5391 231.633 79.0859C233.18 78.6328 234.875 78.4062 236.719 78.4062C239.234 78.4062 241.43 78.8594 243.305 79.7656C245.18 80.6719 246.633 81.9141 247.664 83.4922C248.711 85.0703 249.234 86.875 249.234 88.9062H242.25C242.25 87.9062 242.039 87.0312 241.617 86.2812C241.211 85.5156 240.586 84.9141 239.742 84.4766C238.914 84.0391 237.867 83.8203 236.602 83.8203C235.383 83.8203 234.367 84.0078 233.555 84.3828C232.742 84.7422 232.133 85.2344 231.727 85.8594C231.32 86.4688 231.117 87.1562 231.117 87.9219C231.117 88.5 231.258 89.0234 231.539 89.4922C231.836 89.9609 232.273 90.3984 232.852 90.8047C233.43 91.2109 234.141 91.5938 234.984 91.9531C235.828 92.3125 236.805 92.6641 237.914 93.0078C239.773 93.5703 241.406 94.2031 242.812 94.9062C244.234 95.6094 245.422 96.3984 246.375 97.2734C247.328 98.1484 248.047 99.1406 248.531 100.25C249.016 101.359 249.258 102.617 249.258 104.023C249.258 105.508 248.969 106.836 248.391 108.008C247.812 109.18 246.977 110.172 245.883 110.984C244.789 111.797 243.484 112.414 241.969 112.836C240.453 113.258 238.758 113.469 236.883 113.469C235.195 113.469 233.531 113.25 231.891 112.812C230.25 112.359 228.758 111.68 227.414 110.773C226.086 109.867 225.023 108.711 224.227 107.305C223.43 105.898 223.031 104.234 223.031 102.312H230.086C230.086 103.375 230.25 104.273 230.578 105.008C230.906 105.742 231.367 106.336 231.961 106.789C232.57 107.242 233.289 107.57 234.117 107.773C234.961 107.977 235.883 108.078 236.883 108.078C238.102 108.078 239.102 107.906 239.883 107.562C240.68 107.219 241.266 106.742 241.641 106.133C242.031 105.523 242.227 104.836 242.227 104.07ZM267.305 107.281V95.9844C267.305 95.1719 267.172 94.4766 266.906 93.8984C266.641 93.3047 266.227 92.8438 265.664 92.5156C265.117 92.1875 264.406 92.0234 263.531 92.0234C262.781 92.0234 262.133 92.1562 261.586 92.4219C261.039 92.6719 260.617 93.0391 260.32 93.5234C260.023 93.9922 259.875 94.5469 259.875 95.1875H253.125C253.125 94.1094 253.375 93.0859 253.875 92.1172C254.375 91.1484 255.102 90.2969 256.055 89.5625C257.008 88.8125 258.141 88.2266 259.453 87.8047C260.781 87.3828 262.266 87.1719 263.906 87.1719C265.875 87.1719 267.625 87.5 269.156 88.1562C270.688 88.8125 271.891 89.7969 272.766 91.1094C273.656 92.4219 274.102 94.0625 274.102 96.0312V106.883C274.102 108.273 274.188 109.414 274.359 110.305C274.531 111.18 274.781 111.945 275.109 112.602V113H268.289C267.961 112.312 267.711 111.453 267.539 110.422C267.383 109.375 267.305 108.328 267.305 107.281ZM268.195 97.5547L268.242 101.375H264.469C263.578 101.375 262.805 101.477 262.148 101.68C261.492 101.883 260.953 102.172 260.531 102.547C260.109 102.906 259.797 103.328 259.594 103.812C259.406 104.297 259.312 104.828 259.312 105.406C259.312 105.984 259.445 106.508 259.711 106.977C259.977 107.43 260.359 107.789 260.859 108.055C261.359 108.305 261.945 108.43 262.617 108.43C263.633 108.43 264.516 108.227 265.266 107.82C266.016 107.414 266.594 106.914 267 106.32C267.422 105.727 267.641 105.164 267.656 104.633L269.438 107.492C269.188 108.133 268.844 108.797 268.406 109.484C267.984 110.172 267.445 110.82 266.789 111.43C266.133 112.023 265.344 112.516 264.422 112.906C263.5 113.281 262.406 113.469 261.141 113.469C259.531 113.469 258.07 113.148 256.758 112.508C255.461 111.852 254.43 110.953 253.664 109.812C252.914 108.656 252.539 107.344 252.539 105.875C252.539 104.547 252.789 103.367 253.289 102.336C253.789 101.305 254.523 100.438 255.492 99.7344C256.477 99.0156 257.703 98.4766 259.172 98.1172C260.641 97.7422 262.344 97.5547 264.281 97.5547H268.195ZM285.914 93.0547V113H279.164V87.6406H285.492L285.914 93.0547ZM284.93 99.4297H283.102C283.102 97.5547 283.344 95.8672 283.828 94.3672C284.312 92.8516 284.992 91.5625 285.867 90.5C286.742 89.4219 287.781 88.6016 288.984 88.0391C290.203 87.4609 291.562 87.1719 293.062 87.1719C294.25 87.1719 295.336 87.3438 296.32 87.6875C297.305 88.0312 298.148 88.5781 298.852 89.3281C299.57 90.0781 300.117 91.0703 300.492 92.3047C300.883 93.5391 301.078 95.0469 301.078 96.8281V113H294.281V96.8047C294.281 95.6797 294.125 94.8047 293.812 94.1797C293.5 93.5547 293.039 93.1172 292.43 92.8672C291.836 92.6016 291.102 92.4688 290.227 92.4688C289.32 92.4688 288.531 92.6484 287.859 93.0078C287.203 93.3672 286.656 93.8672 286.219 94.5078C285.797 95.1328 285.477 95.8672 285.258 96.7109C285.039 97.5547 284.93 98.4609 284.93 99.4297ZM318.633 87.6406V92.4219H303.867V87.6406H318.633ZM307.523 81.3828H314.273V105.359C314.273 106.094 314.367 106.656 314.555 107.047C314.758 107.438 315.055 107.711 315.445 107.867C315.836 108.008 316.328 108.078 316.922 108.078C317.344 108.078 317.719 108.062 318.047 108.031C318.391 107.984 318.68 107.938 318.914 107.891L318.938 112.859C318.359 113.047 317.734 113.195 317.062 113.305C316.391 113.414 315.648 113.469 314.836 113.469C313.352 113.469 312.055 113.227 310.945 112.742C309.852 112.242 309.008 111.445 308.414 110.352C307.82 109.258 307.523 107.82 307.523 106.039V81.3828ZM334.148 113.469C332.18 113.469 330.414 113.156 328.852 112.531C327.289 111.891 325.961 111.008 324.867 109.883C323.789 108.758 322.961 107.453 322.383 105.969C321.805 104.469 321.516 102.875 321.516 101.188V100.25C321.516 98.3281 321.789 96.5703 322.336 94.9766C322.883 93.3828 323.664 92 324.68 90.8281C325.711 89.6562 326.961 88.7578 328.43 88.1328C329.898 87.4922 331.555 87.1719 333.398 87.1719C335.195 87.1719 336.789 87.4688 338.18 88.0625C339.57 88.6562 340.734 89.5 341.672 90.5938C342.625 91.6875 343.344 93 343.828 94.5312C344.312 96.0469 344.555 97.7344 344.555 99.5938V102.406H324.398V97.9062H337.922V97.3906C337.922 96.4531 337.75 95.6172 337.406 94.8828C337.078 94.1328 336.578 93.5391 335.906 93.1016C335.234 92.6641 334.375 92.4453 333.328 92.4453C332.438 92.4453 331.672 92.6406 331.031 93.0312C330.391 93.4219 329.867 93.9688 329.461 94.6719C329.07 95.375 328.773 96.2031 328.57 97.1562C328.383 98.0938 328.289 99.125 328.289 100.25V101.188C328.289 102.203 328.43 103.141 328.711 104C329.008 104.859 329.422 105.602 329.953 106.227C330.5 106.852 331.156 107.336 331.922 107.68C332.703 108.023 333.586 108.195 334.57 108.195C335.789 108.195 336.922 107.961 337.969 107.492C339.031 107.008 339.945 106.281 340.711 105.312L343.992 108.875C343.461 109.641 342.734 110.375 341.812 111.078C340.906 111.781 339.812 112.359 338.531 112.812C337.25 113.25 335.789 113.469 334.148 113.469ZM329.391 84.1953L333.984 76.9766H341.32L334.875 84.1953H329.391Z" fill="white"/>
<path d="M62.7578 131.938H64.9492L70.5391 145.848L76.1172 131.938H78.3203L71.3828 149H69.6719L62.7578 131.938ZM62.043 131.938H63.9766L64.293 142.344V149H62.043V131.938ZM77.0898 131.938H79.0234V149H76.7734V142.344L77.0898 131.938ZM90.4258 146.07V136.32H92.6055V149H90.5312L90.4258 146.07ZM90.8359 143.398L91.7383 143.375C91.7383 144.219 91.6484 145 91.4688 145.719C91.2969 146.43 91.0156 147.047 90.625 147.57C90.2344 148.094 89.7227 148.504 89.0898 148.801C88.457 149.09 87.6875 149.234 86.7812 149.234C86.1641 149.234 85.5977 149.145 85.082 148.965C84.5742 148.785 84.1367 148.508 83.7695 148.133C83.4023 147.758 83.1172 147.27 82.9141 146.668C82.7188 146.066 82.6211 145.344 82.6211 144.5V136.32H84.7891V144.523C84.7891 145.094 84.8516 145.566 84.9766 145.941C85.1094 146.309 85.2852 146.602 85.5039 146.82C85.7305 147.031 85.9805 147.18 86.2539 147.266C86.5352 147.352 86.8242 147.395 87.1211 147.395C88.043 147.395 88.7734 147.219 89.3125 146.867C89.8516 146.508 90.2383 146.027 90.4727 145.426C90.7148 144.816 90.8359 144.141 90.8359 143.398ZM98.2656 131V149H96.0859V131H98.2656ZM107.055 136.32V137.984H100.199V136.32H107.055ZM102.52 133.238H104.688V145.859C104.688 146.289 104.754 146.613 104.887 146.832C105.02 147.051 105.191 147.195 105.402 147.266C105.613 147.336 105.84 147.371 106.082 147.371C106.262 147.371 106.449 147.355 106.645 147.324C106.848 147.285 107 147.254 107.102 147.23L107.113 149C106.941 149.055 106.715 149.105 106.434 149.152C106.16 149.207 105.828 149.234 105.438 149.234C104.906 149.234 104.418 149.129 103.973 148.918C103.527 148.707 103.172 148.355 102.906 147.863C102.648 147.363 102.52 146.691 102.52 145.848V133.238ZM111.953 136.32V149H109.773V136.32H111.953ZM109.609 132.957C109.609 132.605 109.715 132.309 109.926 132.066C110.145 131.824 110.465 131.703 110.887 131.703C111.301 131.703 111.617 131.824 111.836 132.066C112.062 132.309 112.176 132.605 112.176 132.957C112.176 133.293 112.062 133.582 111.836 133.824C111.617 134.059 111.301 134.176 110.887 134.176C110.465 134.176 110.145 134.059 109.926 133.824C109.715 133.582 109.609 133.293 109.609 132.957ZM119.945 140.855V142.637H114.227V140.855H119.945ZM132.742 147.16V149H124.211V147.16H132.742ZM124.656 131.938V149H122.395V131.938H124.656ZM137.359 136.32V149H135.18V136.32H137.359ZM135.016 132.957C135.016 132.605 135.121 132.309 135.332 132.066C135.551 131.824 135.871 131.703 136.293 131.703C136.707 131.703 137.023 131.824 137.242 132.066C137.469 132.309 137.582 132.605 137.582 132.957C137.582 133.293 137.469 133.582 137.242 133.824C137.023 134.059 136.707 134.176 136.293 134.176C135.871 134.176 135.551 134.059 135.332 133.824C135.121 133.582 135.016 133.293 135.016 132.957ZM143.008 139.027V149H140.84V136.32H142.891L143.008 139.027ZM142.492 142.18L141.59 142.145C141.598 141.277 141.727 140.477 141.977 139.742C142.227 139 142.578 138.355 143.031 137.809C143.484 137.262 144.023 136.84 144.648 136.543C145.281 136.238 145.98 136.086 146.746 136.086C147.371 136.086 147.934 136.172 148.434 136.344C148.934 136.508 149.359 136.773 149.711 137.141C150.07 137.508 150.344 137.984 150.531 138.57C150.719 139.148 150.812 139.855 150.812 140.691V149H148.633V140.668C148.633 140.004 148.535 139.473 148.34 139.074C148.145 138.668 147.859 138.375 147.484 138.195C147.109 138.008 146.648 137.914 146.102 137.914C145.562 137.914 145.07 138.027 144.625 138.254C144.188 138.48 143.809 138.793 143.488 139.191C143.176 139.59 142.93 140.047 142.75 140.562C142.578 141.07 142.492 141.609 142.492 142.18ZM162.32 136.32H164.289V148.73C164.289 149.848 164.062 150.801 163.609 151.59C163.156 152.379 162.523 152.977 161.711 153.383C160.906 153.797 159.977 154.004 158.922 154.004C158.484 154.004 157.969 153.934 157.375 153.793C156.789 153.66 156.211 153.43 155.641 153.102C155.078 152.781 154.605 152.348 154.223 151.801L155.359 150.512C155.891 151.152 156.445 151.598 157.023 151.848C157.609 152.098 158.188 152.223 158.758 152.223C159.445 152.223 160.039 152.094 160.539 151.836C161.039 151.578 161.426 151.195 161.699 150.688C161.98 150.188 162.121 149.57 162.121 148.836V139.109L162.32 136.32ZM153.59 142.801V142.555C153.59 141.586 153.703 140.707 153.93 139.918C154.164 139.121 154.496 138.438 154.926 137.867C155.363 137.297 155.891 136.859 156.508 136.555C157.125 136.242 157.82 136.086 158.594 136.086C159.391 136.086 160.086 136.227 160.68 136.508C161.281 136.781 161.789 137.184 162.203 137.715C162.625 138.238 162.957 138.871 163.199 139.613C163.441 140.355 163.609 141.195 163.703 142.133V143.211C163.617 144.141 163.449 144.977 163.199 145.719C162.957 146.461 162.625 147.094 162.203 147.617C161.789 148.141 161.281 148.543 160.68 148.824C160.078 149.098 159.375 149.234 158.57 149.234C157.812 149.234 157.125 149.074 156.508 148.754C155.898 148.434 155.375 147.984 154.938 147.406C154.5 146.828 154.164 146.148 153.93 145.367C153.703 144.578 153.59 143.723 153.59 142.801ZM155.758 142.555V142.801C155.758 143.434 155.82 144.027 155.945 144.582C156.078 145.137 156.277 145.625 156.543 146.047C156.816 146.469 157.164 146.801 157.586 147.043C158.008 147.277 158.512 147.395 159.098 147.395C159.816 147.395 160.41 147.242 160.879 146.938C161.348 146.633 161.719 146.23 161.992 145.73C162.273 145.23 162.492 144.688 162.648 144.102V141.277C162.562 140.848 162.43 140.434 162.25 140.035C162.078 139.629 161.852 139.27 161.57 138.957C161.297 138.637 160.957 138.383 160.551 138.195C160.145 138.008 159.668 137.914 159.121 137.914C158.527 137.914 158.016 138.039 157.586 138.289C157.164 138.531 156.816 138.867 156.543 139.297C156.277 139.719 156.078 140.211 155.945 140.773C155.82 141.328 155.758 141.922 155.758 142.555ZM175.34 146.07V136.32H177.52V149H175.445L175.34 146.07ZM175.75 143.398L176.652 143.375C176.652 144.219 176.562 145 176.383 145.719C176.211 146.43 175.93 147.047 175.539 147.57C175.148 148.094 174.637 148.504 174.004 148.801C173.371 149.09 172.602 149.234 171.695 149.234C171.078 149.234 170.512 149.145 169.996 148.965C169.488 148.785 169.051 148.508 168.684 148.133C168.316 147.758 168.031 147.27 167.828 146.668C167.633 146.066 167.535 145.344 167.535 144.5V136.32H169.703V144.523C169.703 145.094 169.766 145.566 169.891 145.941C170.023 146.309 170.199 146.602 170.418 146.82C170.645 147.031 170.895 147.18 171.168 147.266C171.449 147.352 171.738 147.395 172.035 147.395C172.957 147.395 173.688 147.219 174.227 146.867C174.766 146.508 175.152 146.027 175.387 145.426C175.629 144.816 175.75 144.141 175.75 143.398ZM188.301 146.832V140.305C188.301 139.805 188.199 139.371 187.996 139.004C187.801 138.629 187.504 138.34 187.105 138.137C186.707 137.934 186.215 137.832 185.629 137.832C185.082 137.832 184.602 137.926 184.188 138.113C183.781 138.301 183.461 138.547 183.227 138.852C183 139.156 182.887 139.484 182.887 139.836H180.719C180.719 139.383 180.836 138.934 181.07 138.488C181.305 138.043 181.641 137.641 182.078 137.281C182.523 136.914 183.055 136.625 183.672 136.414C184.297 136.195 184.992 136.086 185.758 136.086C186.68 136.086 187.492 136.242 188.195 136.555C188.906 136.867 189.461 137.34 189.859 137.973C190.266 138.598 190.469 139.383 190.469 140.328V146.234C190.469 146.656 190.504 147.105 190.574 147.582C190.652 148.059 190.766 148.469 190.914 148.812V149H188.652C188.543 148.75 188.457 148.418 188.395 148.004C188.332 147.582 188.301 147.191 188.301 146.832ZM188.676 141.312L188.699 142.836H186.508C185.891 142.836 185.34 142.887 184.855 142.988C184.371 143.082 183.965 143.227 183.637 143.422C183.309 143.617 183.059 143.863 182.887 144.16C182.715 144.449 182.629 144.789 182.629 145.18C182.629 145.578 182.719 145.941 182.898 146.27C183.078 146.598 183.348 146.859 183.707 147.055C184.074 147.242 184.523 147.336 185.055 147.336C185.719 147.336 186.305 147.195 186.812 146.914C187.32 146.633 187.723 146.289 188.02 145.883C188.324 145.477 188.488 145.082 188.512 144.699L189.438 145.742C189.383 146.07 189.234 146.434 188.992 146.832C188.75 147.23 188.426 147.613 188.02 147.98C187.621 148.34 187.145 148.641 186.59 148.883C186.043 149.117 185.426 149.234 184.738 149.234C183.879 149.234 183.125 149.066 182.477 148.73C181.836 148.395 181.336 147.945 180.977 147.383C180.625 146.812 180.449 146.176 180.449 145.473C180.449 144.793 180.582 144.195 180.848 143.68C181.113 143.156 181.496 142.723 181.996 142.379C182.496 142.027 183.098 141.762 183.801 141.582C184.504 141.402 185.289 141.312 186.156 141.312H188.676ZM196.234 131V149H194.055V131H196.234ZM208.422 131.938V149H206.16V131.938H208.422ZM212.535 131.938H218.184C219.465 131.938 220.547 132.133 221.43 132.523C222.32 132.914 222.996 133.492 223.457 134.258C223.926 135.016 224.16 135.949 224.16 137.059C224.16 137.84 224 138.555 223.68 139.203C223.367 139.844 222.914 140.391 222.32 140.844C221.734 141.289 221.031 141.621 220.211 141.84L219.578 142.086H214.27L214.246 140.246H218.254C219.066 140.246 219.742 140.105 220.281 139.824C220.82 139.535 221.227 139.148 221.5 138.664C221.773 138.18 221.91 137.645 221.91 137.059C221.91 136.402 221.781 135.828 221.523 135.336C221.266 134.844 220.859 134.465 220.305 134.199C219.758 133.926 219.051 133.789 218.184 133.789H214.797V149H212.535V131.938ZM222.508 149L218.359 141.266L220.715 141.254L224.922 148.859V149H222.508ZM242.371 144.688C242.371 144.289 242.309 143.938 242.184 143.633C242.066 143.32 241.855 143.039 241.551 142.789C241.254 142.539 240.84 142.301 240.309 142.074C239.785 141.848 239.121 141.617 238.316 141.383C237.473 141.133 236.711 140.855 236.031 140.551C235.352 140.238 234.77 139.883 234.285 139.484C233.801 139.086 233.43 138.629 233.172 138.113C232.914 137.598 232.785 137.008 232.785 136.344C232.785 135.68 232.922 135.066 233.195 134.504C233.469 133.941 233.859 133.453 234.367 133.039C234.883 132.617 235.496 132.289 236.207 132.055C236.918 131.82 237.711 131.703 238.586 131.703C239.867 131.703 240.953 131.949 241.844 132.441C242.742 132.926 243.426 133.562 243.895 134.352C244.363 135.133 244.598 135.969 244.598 136.859H242.348C242.348 136.219 242.211 135.652 241.938 135.16C241.664 134.66 241.25 134.27 240.695 133.988C240.141 133.699 239.438 133.555 238.586 133.555C237.781 133.555 237.117 133.676 236.594 133.918C236.07 134.16 235.68 134.488 235.422 134.902C235.172 135.316 235.047 135.789 235.047 136.32C235.047 136.68 235.121 137.008 235.27 137.305C235.426 137.594 235.664 137.863 235.984 138.113C236.312 138.363 236.727 138.594 237.227 138.805C237.734 139.016 238.34 139.219 239.043 139.414C240.012 139.688 240.848 139.992 241.551 140.328C242.254 140.664 242.832 141.043 243.285 141.465C243.746 141.879 244.086 142.352 244.305 142.883C244.531 143.406 244.645 144 244.645 144.664C244.645 145.359 244.504 145.988 244.223 146.551C243.941 147.113 243.539 147.594 243.016 147.992C242.492 148.391 241.863 148.699 241.129 148.918C240.402 149.129 239.59 149.234 238.691 149.234C237.902 149.234 237.125 149.125 236.359 148.906C235.602 148.688 234.91 148.359 234.285 147.922C233.668 147.484 233.172 146.945 232.797 146.305C232.43 145.656 232.246 144.906 232.246 144.055H234.496C234.496 144.641 234.609 145.145 234.836 145.566C235.062 145.98 235.371 146.324 235.762 146.598C236.16 146.871 236.609 147.074 237.109 147.207C237.617 147.332 238.145 147.395 238.691 147.395C239.48 147.395 240.148 147.285 240.695 147.066C241.242 146.848 241.656 146.535 241.938 146.129C242.227 145.723 242.371 145.242 242.371 144.688ZM250.762 147.688L254.289 136.32H256.609L251.523 150.957C251.406 151.27 251.25 151.605 251.055 151.965C250.867 152.332 250.625 152.68 250.328 153.008C250.031 153.336 249.672 153.602 249.25 153.805C248.836 154.016 248.34 154.121 247.762 154.121C247.59 154.121 247.371 154.098 247.105 154.051C246.84 154.004 246.652 153.965 246.543 153.934L246.531 152.176C246.594 152.184 246.691 152.191 246.824 152.199C246.965 152.215 247.062 152.223 247.117 152.223C247.609 152.223 248.027 152.156 248.371 152.023C248.715 151.898 249.004 151.684 249.238 151.379C249.48 151.082 249.688 150.672 249.859 150.148L250.762 147.688ZM248.172 136.32L251.465 146.164L252.027 148.449L250.469 149.246L245.805 136.32H248.172ZM265.949 145.637C265.949 145.324 265.879 145.035 265.738 144.77C265.605 144.496 265.328 144.25 264.906 144.031C264.492 143.805 263.867 143.609 263.031 143.445C262.328 143.297 261.691 143.121 261.121 142.918C260.559 142.715 260.078 142.469 259.68 142.18C259.289 141.891 258.988 141.551 258.777 141.16C258.566 140.77 258.461 140.312 258.461 139.789C258.461 139.289 258.57 138.816 258.789 138.371C259.016 137.926 259.332 137.531 259.738 137.188C260.152 136.844 260.648 136.574 261.227 136.379C261.805 136.184 262.449 136.086 263.16 136.086C264.176 136.086 265.043 136.266 265.762 136.625C266.48 136.984 267.031 137.465 267.414 138.066C267.797 138.66 267.988 139.32 267.988 140.047H265.82C265.82 139.695 265.715 139.355 265.504 139.027C265.301 138.691 265 138.414 264.602 138.195C264.211 137.977 263.73 137.867 263.16 137.867C262.559 137.867 262.07 137.961 261.695 138.148C261.328 138.328 261.059 138.559 260.887 138.84C260.723 139.121 260.641 139.418 260.641 139.73C260.641 139.965 260.68 140.176 260.758 140.363C260.844 140.543 260.992 140.711 261.203 140.867C261.414 141.016 261.711 141.156 262.094 141.289C262.477 141.422 262.965 141.555 263.559 141.688C264.598 141.922 265.453 142.203 266.125 142.531C266.797 142.859 267.297 143.262 267.625 143.738C267.953 144.215 268.117 144.793 268.117 145.473C268.117 146.027 268 146.535 267.766 146.996C267.539 147.457 267.207 147.855 266.77 148.191C266.34 148.52 265.824 148.777 265.223 148.965C264.629 149.145 263.961 149.234 263.219 149.234C262.102 149.234 261.156 149.035 260.383 148.637C259.609 148.238 259.023 147.723 258.625 147.09C258.227 146.457 258.027 145.789 258.027 145.086H260.207C260.238 145.68 260.41 146.152 260.723 146.504C261.035 146.848 261.418 147.094 261.871 147.242C262.324 147.383 262.773 147.453 263.219 147.453C263.812 147.453 264.309 147.375 264.707 147.219C265.113 147.062 265.422 146.848 265.633 146.574C265.844 146.301 265.949 145.988 265.949 145.637ZM276.273 136.32V137.984H269.418V136.32H276.273ZM271.738 133.238H273.906V145.859C273.906 146.289 273.973 146.613 274.105 146.832C274.238 147.051 274.41 147.195 274.621 147.266C274.832 147.336 275.059 147.371 275.301 147.371C275.48 147.371 275.668 147.355 275.863 147.324C276.066 147.285 276.219 147.254 276.32 147.23L276.332 149C276.16 149.055 275.934 149.105 275.652 149.152C275.379 149.207 275.047 149.234 274.656 149.234C274.125 149.234 273.637 149.129 273.191 148.918C272.746 148.707 272.391 148.355 272.125 147.863C271.867 147.363 271.738 146.691 271.738 145.848V133.238ZM284.078 149.234C283.195 149.234 282.395 149.086 281.676 148.789C280.965 148.484 280.352 148.059 279.836 147.512C279.328 146.965 278.938 146.316 278.664 145.566C278.391 144.816 278.254 143.996 278.254 143.105V142.613C278.254 141.582 278.406 140.664 278.711 139.859C279.016 139.047 279.43 138.359 279.953 137.797C280.477 137.234 281.07 136.809 281.734 136.52C282.398 136.23 283.086 136.086 283.797 136.086C284.703 136.086 285.484 136.242 286.141 136.555C286.805 136.867 287.348 137.305 287.77 137.867C288.191 138.422 288.504 139.078 288.707 139.836C288.91 140.586 289.012 141.406 289.012 142.297V143.27H279.543V141.5H286.844V141.336C286.812 140.773 286.695 140.227 286.492 139.695C286.297 139.164 285.984 138.727 285.555 138.383C285.125 138.039 284.539 137.867 283.797 137.867C283.305 137.867 282.852 137.973 282.438 138.184C282.023 138.387 281.668 138.691 281.371 139.098C281.074 139.504 280.844 140 280.68 140.586C280.516 141.172 280.434 141.848 280.434 142.613V143.105C280.434 143.707 280.516 144.273 280.68 144.805C280.852 145.328 281.098 145.789 281.418 146.188C281.746 146.586 282.141 146.898 282.602 147.125C283.07 147.352 283.602 147.465 284.195 147.465C284.961 147.465 285.609 147.309 286.141 146.996C286.672 146.684 287.137 146.266 287.535 145.742L288.848 146.785C288.574 147.199 288.227 147.594 287.805 147.969C287.383 148.344 286.863 148.648 286.246 148.883C285.637 149.117 284.914 149.234 284.078 149.234ZM293.699 138.84V149H291.52V136.32H293.582L293.699 138.84ZM293.254 142.18L292.246 142.145C292.254 141.277 292.367 140.477 292.586 139.742C292.805 139 293.129 138.355 293.559 137.809C293.988 137.262 294.523 136.84 295.164 136.543C295.805 136.238 296.547 136.086 297.391 136.086C297.984 136.086 298.531 136.172 299.031 136.344C299.531 136.508 299.965 136.77 300.332 137.129C300.699 137.488 300.984 137.949 301.188 138.512C301.391 139.074 301.492 139.754 301.492 140.551V149H299.324V140.656C299.324 139.992 299.211 139.461 298.984 139.062C298.766 138.664 298.453 138.375 298.047 138.195C297.641 138.008 297.164 137.914 296.617 137.914C295.977 137.914 295.441 138.027 295.012 138.254C294.582 138.48 294.238 138.793 293.98 139.191C293.723 139.59 293.535 140.047 293.418 140.562C293.309 141.07 293.254 141.609 293.254 142.18ZM301.469 140.984L300.016 141.43C300.023 140.734 300.137 140.066 300.355 139.426C300.582 138.785 300.906 138.215 301.328 137.715C301.758 137.215 302.285 136.82 302.91 136.531C303.535 136.234 304.25 136.086 305.055 136.086C305.734 136.086 306.336 136.176 306.859 136.355C307.391 136.535 307.836 136.812 308.195 137.188C308.562 137.555 308.84 138.027 309.027 138.605C309.215 139.184 309.309 139.871 309.309 140.668V149H307.129V140.645C307.129 139.934 307.016 139.383 306.789 138.992C306.57 138.594 306.258 138.316 305.852 138.16C305.453 137.996 304.977 137.914 304.422 137.914C303.945 137.914 303.523 137.996 303.156 138.16C302.789 138.324 302.48 138.551 302.23 138.84C301.98 139.121 301.789 139.445 301.656 139.812C301.531 140.18 301.469 140.57 301.469 140.984Z" fill="white"/>
</svg>
